<mxfile host="app.diagrams.net" modified="2023-08-25T14:12:29.730Z" agent="Mozilla/5.0 (X11; Linux x86_64; rv:109.0) Gecko/20100101 Firefox/112.0" etag="QHfa2-x7MhuSDU4EPdc2" version="21.6.8" type="github">
  <diagram name="Página-1" id="XFSP8geokjHrjOCMzi8p">
    <mxGraphModel dx="1274" dy="649" grid="1" gridSize="10" guides="1" tooltips="1" connect="1" arrows="1" fold="1" page="1" pageScale="1" pageWidth="827" pageHeight="1169" math="0" shadow="0">
      <root>
        <mxCell id="0" />
        <mxCell id="1" parent="0" />
        <mxCell id="F0FVqHAEmC6tlu0xKBB9-2" value="&lt;b&gt;Departamento&lt;/b&gt;" style="rounded=0;whiteSpace=wrap;html=1;" vertex="1" parent="1">
          <mxGeometry x="70" y="40" width="120" height="60" as="geometry" />
        </mxCell>
        <mxCell id="F0FVqHAEmC6tlu0xKBB9-3" value="" style="endArrow=none;html=1;rounded=0;" edge="1" parent="1">
          <mxGeometry width="50" height="50" relative="1" as="geometry">
            <mxPoint x="190" y="70" as="sourcePoint" />
            <mxPoint x="240" y="70" as="targetPoint" />
          </mxGeometry>
        </mxCell>
        <mxCell id="F0FVqHAEmC6tlu0xKBB9-4" value="estar" style="rhombus;whiteSpace=wrap;html=1;" vertex="1" parent="1">
          <mxGeometry x="240" y="30" width="80" height="80" as="geometry" />
        </mxCell>
        <mxCell id="F0FVqHAEmC6tlu0xKBB9-5" value="1" style="text;html=1;align=center;verticalAlign=middle;resizable=0;points=[];autosize=1;strokeColor=none;fillColor=none;" vertex="1" parent="1">
          <mxGeometry x="195" y="38" width="30" height="30" as="geometry" />
        </mxCell>
        <mxCell id="F0FVqHAEmC6tlu0xKBB9-6" value="" style="endArrow=none;html=1;rounded=0;" edge="1" parent="1">
          <mxGeometry width="50" height="50" relative="1" as="geometry">
            <mxPoint x="320" y="69.5" as="sourcePoint" />
            <mxPoint x="380" y="69.5" as="targetPoint" />
          </mxGeometry>
        </mxCell>
        <mxCell id="F0FVqHAEmC6tlu0xKBB9-7" value="N" style="text;html=1;align=center;verticalAlign=middle;resizable=0;points=[];autosize=1;strokeColor=none;fillColor=none;" vertex="1" parent="1">
          <mxGeometry x="335" y="38" width="30" height="30" as="geometry" />
        </mxCell>
        <mxCell id="F0FVqHAEmC6tlu0xKBB9-8" value="&lt;b&gt;Funcionário&lt;/b&gt;" style="rounded=0;whiteSpace=wrap;html=1;" vertex="1" parent="1">
          <mxGeometry x="380" y="40" width="120" height="60" as="geometry" />
        </mxCell>
        <mxCell id="F0FVqHAEmC6tlu0xKBB9-9" value="" style="endArrow=none;html=1;rounded=0;" edge="1" parent="1">
          <mxGeometry width="50" height="50" relative="1" as="geometry">
            <mxPoint x="469.5" y="170" as="sourcePoint" />
            <mxPoint x="469.5" y="100" as="targetPoint" />
          </mxGeometry>
        </mxCell>
        <mxCell id="F0FVqHAEmC6tlu0xKBB9-12" value="ter" style="rhombus;whiteSpace=wrap;html=1;" vertex="1" parent="1">
          <mxGeometry x="430" y="170" width="80" height="80" as="geometry" />
        </mxCell>
        <mxCell id="F0FVqHAEmC6tlu0xKBB9-13" value="" style="endArrow=none;html=1;rounded=0;" edge="1" parent="1">
          <mxGeometry width="50" height="50" relative="1" as="geometry">
            <mxPoint x="470" y="290" as="sourcePoint" />
            <mxPoint x="470" y="250" as="targetPoint" />
          </mxGeometry>
        </mxCell>
        <mxCell id="F0FVqHAEmC6tlu0xKBB9-14" value="N" style="text;html=1;align=center;verticalAlign=middle;resizable=0;points=[];autosize=1;strokeColor=none;fillColor=none;" vertex="1" parent="1">
          <mxGeometry x="475" y="248" width="30" height="30" as="geometry" />
        </mxCell>
        <mxCell id="F0FVqHAEmC6tlu0xKBB9-15" value="Projeto" style="swimlane;whiteSpace=wrap;html=1;" vertex="1" parent="1">
          <mxGeometry x="405" y="290" width="130" height="110" as="geometry" />
        </mxCell>
        <mxCell id="F0FVqHAEmC6tlu0xKBB9-16" value="" style="endArrow=none;html=1;rounded=0;" edge="1" parent="1">
          <mxGeometry width="50" height="50" relative="1" as="geometry">
            <mxPoint x="370" y="350" as="sourcePoint" />
            <mxPoint x="405" y="350" as="targetPoint" />
          </mxGeometry>
        </mxCell>
        <mxCell id="F0FVqHAEmC6tlu0xKBB9-17" value="utilizar" style="rhombus;whiteSpace=wrap;html=1;" vertex="1" parent="1">
          <mxGeometry x="290" y="310" width="80" height="80" as="geometry" />
        </mxCell>
        <mxCell id="F0FVqHAEmC6tlu0xKBB9-18" value="&lt;b&gt;Peças&lt;/b&gt;" style="rounded=0;whiteSpace=wrap;html=1;" vertex="1" parent="1">
          <mxGeometry x="150" y="320" width="120" height="60" as="geometry" />
        </mxCell>
        <mxCell id="F0FVqHAEmC6tlu0xKBB9-19" value="" style="endArrow=none;html=1;rounded=0;entryX=0;entryY=0.5;entryDx=0;entryDy=0;exitX=1;exitY=0.5;exitDx=0;exitDy=0;" edge="1" parent="1" source="F0FVqHAEmC6tlu0xKBB9-18" target="F0FVqHAEmC6tlu0xKBB9-17">
          <mxGeometry width="50" height="50" relative="1" as="geometry">
            <mxPoint x="260" y="360" as="sourcePoint" />
            <mxPoint x="310" y="310" as="targetPoint" />
          </mxGeometry>
        </mxCell>
        <mxCell id="F0FVqHAEmC6tlu0xKBB9-20" value="" style="endArrow=none;html=1;rounded=0;" edge="1" parent="1">
          <mxGeometry width="50" height="50" relative="1" as="geometry">
            <mxPoint x="210" y="320" as="sourcePoint" />
            <mxPoint x="210" y="280" as="targetPoint" />
          </mxGeometry>
        </mxCell>
        <mxCell id="F0FVqHAEmC6tlu0xKBB9-21" value="N" style="text;html=1;align=center;verticalAlign=middle;resizable=0;points=[];autosize=1;strokeColor=none;fillColor=none;" vertex="1" parent="1">
          <mxGeometry x="215" y="288" width="30" height="30" as="geometry" />
        </mxCell>
        <mxCell id="F0FVqHAEmC6tlu0xKBB9-22" value="ter" style="rhombus;whiteSpace=wrap;html=1;" vertex="1" parent="1">
          <mxGeometry x="170" y="208" width="80" height="80" as="geometry" />
        </mxCell>
        <mxCell id="F0FVqHAEmC6tlu0xKBB9-23" value="" style="endArrow=none;html=1;rounded=0;exitX=0.5;exitY=0;exitDx=0;exitDy=0;" edge="1" parent="1" source="F0FVqHAEmC6tlu0xKBB9-22">
          <mxGeometry width="50" height="50" relative="1" as="geometry">
            <mxPoint x="205" y="208" as="sourcePoint" />
            <mxPoint x="210" y="170" as="targetPoint" />
          </mxGeometry>
        </mxCell>
        <mxCell id="F0FVqHAEmC6tlu0xKBB9-24" value="Depósito" style="rounded=0;whiteSpace=wrap;html=1;" vertex="1" parent="1">
          <mxGeometry x="150" y="140" width="120" height="30" as="geometry" />
        </mxCell>
        <mxCell id="F0FVqHAEmC6tlu0xKBB9-25" value="1" style="text;html=1;align=center;verticalAlign=middle;resizable=0;points=[];autosize=1;strokeColor=none;fillColor=none;" vertex="1" parent="1">
          <mxGeometry x="225" y="178" width="30" height="30" as="geometry" />
        </mxCell>
        <mxCell id="F0FVqHAEmC6tlu0xKBB9-26" value="" style="endArrow=none;html=1;rounded=0;" edge="1" parent="1">
          <mxGeometry width="50" height="50" relative="1" as="geometry">
            <mxPoint x="220" y="480" as="sourcePoint" />
            <mxPoint x="220" y="380" as="targetPoint" />
          </mxGeometry>
        </mxCell>
        <mxCell id="F0FVqHAEmC6tlu0xKBB9-27" value="" style="endArrow=none;html=1;rounded=0;" edge="1" parent="1">
          <mxGeometry width="50" height="50" relative="1" as="geometry">
            <mxPoint x="220" y="480" as="sourcePoint" />
            <mxPoint x="280" y="480" as="targetPoint" />
          </mxGeometry>
        </mxCell>
        <mxCell id="F0FVqHAEmC6tlu0xKBB9-29" value="utilizar" style="rhombus;whiteSpace=wrap;html=1;" vertex="1" parent="1">
          <mxGeometry x="280" y="438" width="80" height="80" as="geometry" />
        </mxCell>
        <mxCell id="F0FVqHAEmC6tlu0xKBB9-30" value="" style="endArrow=none;html=1;rounded=0;" edge="1" parent="1">
          <mxGeometry width="50" height="50" relative="1" as="geometry">
            <mxPoint x="360" y="480" as="sourcePoint" />
            <mxPoint x="420" y="480" as="targetPoint" />
          </mxGeometry>
        </mxCell>
        <mxCell id="F0FVqHAEmC6tlu0xKBB9-31" value="Fornecedores" style="swimlane;whiteSpace=wrap;html=1;" vertex="1" parent="1">
          <mxGeometry x="420" y="440" width="130" height="80" as="geometry" />
        </mxCell>
        <mxCell id="F0FVqHAEmC6tlu0xKBB9-32" value="Data de início" style="text;html=1;align=center;verticalAlign=middle;resizable=0;points=[];autosize=1;strokeColor=none;fillColor=none;" vertex="1" parent="1">
          <mxGeometry x="430" y="468" width="100" height="30" as="geometry" />
        </mxCell>
        <mxCell id="F0FVqHAEmC6tlu0xKBB9-33" value="1" style="text;html=1;align=center;verticalAlign=middle;resizable=0;points=[];autosize=1;strokeColor=none;fillColor=none;" vertex="1" parent="1">
          <mxGeometry x="365" y="318" width="30" height="30" as="geometry" />
        </mxCell>
        <mxCell id="F0FVqHAEmC6tlu0xKBB9-34" value="N" style="text;html=1;align=center;verticalAlign=middle;resizable=0;points=[];autosize=1;strokeColor=none;fillColor=none;" vertex="1" parent="1">
          <mxGeometry x="265" y="318" width="30" height="30" as="geometry" />
        </mxCell>
        <mxCell id="F0FVqHAEmC6tlu0xKBB9-35" value="N" style="text;html=1;align=center;verticalAlign=middle;resizable=0;points=[];autosize=1;strokeColor=none;fillColor=none;" vertex="1" parent="1">
          <mxGeometry x="365" y="448" width="30" height="30" as="geometry" />
        </mxCell>
        <mxCell id="F0FVqHAEmC6tlu0xKBB9-36" value="N" style="text;html=1;align=center;verticalAlign=middle;resizable=0;points=[];autosize=1;strokeColor=none;fillColor=none;" vertex="1" parent="1">
          <mxGeometry x="225" y="438" width="30" height="30" as="geometry" />
        </mxCell>
        <mxCell id="F0FVqHAEmC6tlu0xKBB9-37" value="N" style="text;html=1;align=center;verticalAlign=middle;resizable=0;points=[];autosize=1;strokeColor=none;fillColor=none;" vertex="1" parent="1">
          <mxGeometry x="475" y="108" width="30" height="30" as="geometry" />
        </mxCell>
      </root>
    </mxGraphModel>
  </diagram>
</mxfile>
